<?xml version="1.0" encoding="utf-8"?>
<!-- Generator: Adobe Illustrator 23.0.1, SVG Export Plug-In . SVG Version: 6.00 Build 0)  -->
<svg version="1.1" id="Calque_1" xmlns="http://www.w3.org/2000/svg" xmlns:xlink="http://www.w3.org/1999/xlink" x="0px" y="0px"
	 viewBox="0 0 325 250" style="enable-background:new 0 0 325 250;" xml:space="preserve">
<style type="text/css">
	.st0{fill:#E49D4F;}
</style>
<g>
	<g>
		<g>
			<path class="st0" d="M182.3,109.9c13.7,0,24.9,11.2,24.9,24.9s-11.2,24.9-24.9,24.9s-24.9-11.2-24.9-24.9
				S168.6,109.9,182.3,109.9 M182.3,104.9c-16.5,0-29.9,13.4-29.9,29.9c0,16.5,13.4,29.9,29.9,29.9c16.5,0,29.9-13.4,29.9-29.9
				C212.2,118.3,198.9,104.9,182.3,104.9L182.3,104.9z"/>
		</g>
		<path class="st0" d="M182.3,127.6c2.6,1.8,5.8,2.9,9,2.9c0.3,0,0.7,0,1,0v6.8c0,4.2-5.7,9.4-10,12.5c-4.3-3-10-8.2-10-12.5v-6.8
			c0.3,0,0.7,0,1,0C176.6,130.4,179.7,129.4,182.3,127.6 M182.3,120.6c-2,2.9-5.3,4.9-9,4.9c-2.2,0-4.3-0.7-6-1.9
			c0,2.8,0,9.6,0,13.7c0,9.7,15,18.4,15,18.4s15-8.7,15-18.4c0-4,0-10.9,0-13.7c-1.7,1.2-3.8,1.9-6,1.9
			C187.6,125.4,184.4,123.5,182.3,120.6L182.3,120.6z"/>
	</g>
	<g>
		<path class="st0" d="M165,20.8l-2.5,28.7L160,20.8c-0.1-1.4,0.9-2.6,2.3-2.7c1.4-0.1,2.6,0.9,2.7,2.3C165,20.5,165,20.7,165,20.8z
			"/>
		<path class="st0" d="M236.6,41.3L220.1,65l12.2-26.1c0.6-1.3,2.1-1.8,3.3-1.2s1.8,2.1,1.2,3.3C236.8,41.1,236.7,41.2,236.6,41.3z"
			/>
		<path class="st0" d="M288.4,94.9l-26.1,12.2l23.6-16.5c1.1-0.8,2.7-0.5,3.5,0.6c0.8,1.1,0.5,2.7-0.6,3.5
			C288.6,94.8,288.5,94.9,288.4,94.9z"/>
		<path class="st0" d="M306.4,167.2l-28.7-2.5l28.7-2.5c1.4-0.1,2.6,0.9,2.7,2.3s-0.9,2.6-2.3,2.7
			C306.7,167.2,306.5,167.2,306.4,167.2z"/>
		<path class="st0" d="M285.9,238.8l-23.6-16.5l26.1,12.2c1.3,0.6,1.8,2.1,1.2,3.3s-2.1,1.8-3.3,1.2
			C286.1,239,286,238.9,285.9,238.8z"/>
		<path class="st0" d="M36.7,234.5l26.1-12.2l-23.6,16.5c-1.1,0.8-2.7,0.5-3.5-0.6s-0.5-2.7,0.6-3.5
			C36.4,234.6,36.5,234.5,36.7,234.5z"/>
		<path class="st0" d="M18.6,162.2l28.7,2.5l-28.7,2.5c-1.4,0.1-2.6-0.9-2.7-2.3s0.9-2.6,2.3-2.7C18.3,162.2,18.5,162.2,18.6,162.2z
			"/>
		<path class="st0" d="M39.2,90.6l23.6,16.5L36.7,94.9c-1.3-0.6-1.8-2.1-1.2-3.3s2.1-1.8,3.3-1.2C38.9,90.4,39,90.5,39.2,90.6z"/>
		<path class="st0" d="M92.7,38.8L104.9,65L88.4,41.3c-0.8-1.1-0.5-2.7,0.6-3.5s2.7-0.5,3.5,0.6C92.6,38.6,92.7,38.7,92.7,38.8z"/>
	</g>
	<g>
		<path class="st0" d="M206.9,8.6l-7,16.3l2.1-17.6c0.2-1.4,1.4-2.4,2.8-2.2s2.4,1.4,2.2,2.8C207.1,8.2,207,8.4,206.9,8.6z"/>
		<path class="st0" d="M279,51.8l-14.2,10.7l10.7-14.2c0.8-1.1,2.4-1.3,3.5-0.5s1.3,2.4,0.5,3.5C279.3,51.4,279.2,51.6,279,51.8z"/>
		<path class="st0" d="M319.9,125.1l-17.6,2.1l16.3-7c1.3-0.6,2.8,0.1,3.3,1.3c0.5,1.3,0,2.8-1.3,3.3
			C320.3,125,320.1,125.1,319.9,125.1z"/>
		<path class="st0" d="M318.6,209.1l-16.3-7l17.6,2.1c1.4,0.2,2.4,1.4,2.2,2.8c-0.2,1.4-1.4,2.4-2.8,2.2
			C319,209.2,318.8,209.2,318.6,209.1z"/>
		<path class="st0" d="M5.2,204.3l17.6-2.1l-16.3,7c-1.3,0.6-2.8-0.1-3.3-1.3c-0.5-1.3,0-2.8,1.3-3.3C4.7,204.4,4.9,204.3,5.2,204.3
			z"/>
		<path class="st0" d="M6.4,120.3l16.3,7l-17.6-2.1c-1.4-0.2-2.4-1.4-2.2-2.8c0.2-1.4,1.4-2.4,2.8-2.2C6,120.1,6.2,120.2,6.4,120.3z
			"/>
		<path class="st0" d="M49.5,48.2l10.7,14.2L46,51.8c-1.1-0.8-1.3-2.4-0.5-3.5c0.8-1.1,2.4-1.3,3.5-0.5C49.2,47.8,49.4,48,49.5,48.2
			z"/>
		<path class="st0" d="M122.9,7.3l2.1,17.6l-7-16.3c-0.6-1.3,0.1-2.8,1.3-3.3c1.3-0.6,2.8,0.1,3.3,1.3
			C122.8,6.9,122.9,7.1,122.9,7.3z"/>
	</g>
	<path class="st0" d="M202.4,73.5c0-0.2-0.1-0.3-0.1-0.5c0,0,0,0,0,0c0,0,0-0.1,0-0.1c0-0.1-0.1-0.2-0.1-0.3c0-0.1-0.1-0.1-0.1-0.1
		c-0.1-0.1-0.1-0.2-0.1-0.3c0-0.1-0.1-0.1-0.1-0.1c-0.1-0.1-0.1-0.2-0.2-0.2c0,0-0.1-0.1-0.1-0.1c-0.1-0.1-0.2-0.2-0.3-0.3
		c0,0,0,0-0.1,0c-0.1-0.1-0.2-0.2-0.4-0.2c0,0,0,0,0,0c-0.2-0.1-0.4-0.2-0.7-0.3c-0.1,0-0.1,0-0.1,0c-0.2,0-0.4-0.1-0.6-0.1h-56.7
		c-0.6,0-1.2,0.2-1.7,0.5l-17,10.9c0,0,0,0,0,0c-0.1,0-0.1,0.1-0.1,0.1c-0.1,0.1-0.2,0.2-0.3,0.2c-0.1,0.1-0.1,0.1-0.1,0.1
		c-0.1,0.1-0.2,0.2-0.2,0.3c0,0.1-0.1,0.1-0.1,0.2c-0.1,0.1-0.1,0.2-0.2,0.3c0,0.1-0.1,0.1-0.1,0.2c-0.1,0.1-0.1,0.3-0.1,0.4
		c0,0,0,0.1,0,0.1c0,0.2-0.1,0.4-0.1,0.6c0,0,0,0,0,0.1v159.7c0,1.7,1.4,3.1,3.1,3.1h56.7c0.2,0,0.4,0,0.6-0.1c0.1,0,0.1,0,0.2,0
		c0.1,0,0.3-0.1,0.4-0.1c0,0,0.1,0,0.1-0.1c0.1-0.1,0.3-0.1,0.4-0.2l17-10.9c0.9-0.6,1.4-1.5,1.4-2.6v-70.3c-1.9,1.4-4,2.5-6.2,3.5
		V232l-10.8,6.9v-69.4c-1,0.1-2,0.1-3.1,0.1c-1,0-2.1-0.1-3.1-0.1v71.9h-50.5V87.9h50.5V100c1-0.1,2-0.1,3.1-0.1
		c1,0,2.1,0.1,3.1,0.1V86.5l10.8-6.9v23.2c2.2,0.9,4.2,2.1,6.2,3.5V73.9C202.4,73.8,202.4,73.7,202.4,73.5
		C202.4,73.6,202.4,73.6,202.4,73.5z M183.9,80.2l-2.4,1.6h-45.3l7.4-4.7h45.3L183.9,80.2z"/>
</g>
</svg>
